<mxfile host="65bd71144e">
    <diagram id="z5ggQvx44LeVWJGlkjqF" name="class diagram">
        <mxGraphModel dx="1342" dy="511" grid="1" gridSize="10" guides="1" tooltips="1" connect="1" arrows="1" fold="1" page="1" pageScale="1" pageWidth="850" pageHeight="1100" math="0" shadow="0">
            <root>
                <mxCell id="0"/>
                <mxCell id="1" parent="0"/>
                <mxCell id="37" value="" style="endArrow=none;html=1;" parent="1" edge="1">
                    <mxGeometry width="50" height="50" relative="1" as="geometry">
                        <mxPoint x="110" y="519" as="sourcePoint"/>
                        <mxPoint x="110" y="639" as="targetPoint"/>
                        <Array as="points">
                            <mxPoint x="110" y="379"/>
                        </Array>
                    </mxGeometry>
                </mxCell>
                <mxCell id="38" value="&lt;font color=&quot;#ffffff&quot;&gt;1&lt;sup&gt;..*&lt;/sup&gt;&lt;/font&gt;" style="text;html=1;strokeColor=none;fillColor=none;align=center;verticalAlign=middle;whiteSpace=wrap;rounded=0;fontColor=#FFCF24;" parent="1" vertex="1">
                    <mxGeometry x="80" y="390" width="140" height="30" as="geometry"/>
                </mxCell>
                <mxCell id="39" value="&lt;font color=&quot;#ffffff&quot;&gt;1,1&lt;/font&gt;" style="text;html=1;strokeColor=none;fillColor=none;align=center;verticalAlign=middle;whiteSpace=wrap;rounded=0;fontColor=#FFCF24;" parent="1" vertex="1">
                    <mxGeometry x="80" y="599" width="140" height="30" as="geometry"/>
                </mxCell>
                <mxCell id="65" value="user" style="swimlane;fontStyle=1;align=center;verticalAlign=top;childLayout=stackLayout;horizontal=1;startSize=26;horizontalStack=0;resizeParent=1;resizeParentMax=0;resizeLast=0;collapsible=1;marginBottom=0;" parent="1" vertex="1">
                    <mxGeometry x="20" y="62" width="190" height="320" as="geometry"/>
                </mxCell>
                <mxCell id="66" value="# id: number" style="text;strokeColor=none;fillColor=none;align=left;verticalAlign=top;spacingLeft=4;spacingRight=4;overflow=hidden;rotatable=0;points=[[0,0.5],[1,0.5]];portConstraint=eastwest;" parent="65" vertex="1">
                    <mxGeometry y="26" width="190" height="26" as="geometry"/>
                </mxCell>
                <mxCell id="132" value="#name: text" style="text;strokeColor=none;fillColor=none;align=left;verticalAlign=top;spacingLeft=4;spacingRight=4;overflow=hidden;rotatable=0;points=[[0,0.5],[1,0.5]];portConstraint=eastwest;" parent="65" vertex="1">
                    <mxGeometry y="52" width="190" height="26" as="geometry"/>
                </mxCell>
                <mxCell id="70" value="# email: text" style="text;strokeColor=none;fillColor=none;align=left;verticalAlign=top;spacingLeft=4;spacingRight=4;overflow=hidden;rotatable=0;points=[[0,0.5],[1,0.5]];portConstraint=eastwest;" parent="65" vertex="1">
                    <mxGeometry y="78" width="190" height="26" as="geometry"/>
                </mxCell>
                <mxCell id="HBnPjsJdhIx05hBvFf9J-142" value="# about: text" style="text;strokeColor=none;fillColor=none;align=left;verticalAlign=top;spacingLeft=4;spacingRight=4;overflow=hidden;rotatable=0;points=[[0,0.5],[1,0.5]];portConstraint=eastwest;" parent="65" vertex="1">
                    <mxGeometry y="104" width="190" height="26" as="geometry"/>
                </mxCell>
                <mxCell id="HBnPjsJdhIx05hBvFf9J-140" value="#localisation : text" style="text;strokeColor=none;fillColor=none;align=left;verticalAlign=top;spacingLeft=4;spacingRight=4;overflow=hidden;rotatable=0;points=[[0,0.5],[1,0.5]];portConstraint=eastwest;" parent="65" vertex="1">
                    <mxGeometry y="130" width="190" height="26" as="geometry"/>
                </mxCell>
                <mxCell id="71" value="#phone: text" style="text;strokeColor=none;fillColor=none;align=left;verticalAlign=top;spacingLeft=4;spacingRight=4;overflow=hidden;rotatable=0;points=[[0,0.5],[1,0.5]];portConstraint=eastwest;" parent="65" vertex="1">
                    <mxGeometry y="156" width="190" height="26" as="geometry"/>
                </mxCell>
                <mxCell id="72" value="# password:text" style="text;strokeColor=none;fillColor=none;align=left;verticalAlign=top;spacingLeft=4;spacingRight=4;overflow=hidden;rotatable=0;points=[[0,0.5],[1,0.5]];portConstraint=eastwest;" parent="65" vertex="1">
                    <mxGeometry y="182" width="190" height="26" as="geometry"/>
                </mxCell>
                <mxCell id="OUAm6H8FFkH4fl_18YLy-141" value="#gender: boolean" style="text;strokeColor=none;fillColor=none;align=left;verticalAlign=top;spacingLeft=4;spacingRight=4;overflow=hidden;rotatable=0;points=[[0,0.5],[1,0.5]];portConstraint=eastwest;" parent="65" vertex="1">
                    <mxGeometry y="208" width="190" height="26" as="geometry"/>
                </mxCell>
                <mxCell id="f4z8Ke3Pi-EXJr0BFJbC-139" value="#image: text" style="text;strokeColor=none;fillColor=none;align=left;verticalAlign=top;spacingLeft=4;spacingRight=4;overflow=hidden;rotatable=0;points=[[0,0.5],[1,0.5]];portConstraint=eastwest;" parent="65" vertex="1">
                    <mxGeometry y="234" width="190" height="26" as="geometry"/>
                </mxCell>
                <mxCell id="67" value="" style="line;strokeWidth=1;fillColor=none;align=left;verticalAlign=middle;spacingTop=-1;spacingLeft=3;spacingRight=3;rotatable=0;labelPosition=right;points=[];portConstraint=eastwest;strokeColor=inherit;" parent="65" vertex="1">
                    <mxGeometry y="260" width="190" height="8" as="geometry"/>
                </mxCell>
                <mxCell id="68" value="+login()" style="text;strokeColor=none;fillColor=none;align=left;verticalAlign=top;spacingLeft=4;spacingRight=4;overflow=hidden;rotatable=0;points=[[0,0.5],[1,0.5]];portConstraint=eastwest;" parent="65" vertex="1">
                    <mxGeometry y="268" width="190" height="26" as="geometry"/>
                </mxCell>
                <mxCell id="69" value="+register()&#10;" style="text;strokeColor=none;fillColor=none;align=left;verticalAlign=top;spacingLeft=4;spacingRight=4;overflow=hidden;rotatable=0;points=[[0,0.5],[1,0.5]];portConstraint=eastwest;" parent="65" vertex="1">
                    <mxGeometry y="294" width="190" height="26" as="geometry"/>
                </mxCell>
                <mxCell id="80" value="proprety" style="swimlane;fontStyle=1;align=center;verticalAlign=top;childLayout=stackLayout;horizontal=1;startSize=26;horizontalStack=0;resizeParent=1;resizeParentMax=0;resizeLast=0;collapsible=1;marginBottom=0;" parent="1" vertex="1">
                    <mxGeometry x="580" y="49" width="240" height="346" as="geometry"/>
                </mxCell>
                <mxCell id="81" value="#id: number" style="text;strokeColor=none;fillColor=none;align=left;verticalAlign=top;spacingLeft=4;spacingRight=4;overflow=hidden;rotatable=0;points=[[0,0.5],[1,0.5]];portConstraint=eastwest;" parent="80" vertex="1">
                    <mxGeometry y="26" width="240" height="26" as="geometry"/>
                </mxCell>
                <mxCell id="92" value="#name: text" style="text;strokeColor=none;fillColor=none;align=left;verticalAlign=top;spacingLeft=4;spacingRight=4;overflow=hidden;rotatable=0;points=[[0,0.5],[1,0.5]];portConstraint=eastwest;" parent="80" vertex="1">
                    <mxGeometry y="52" width="240" height="26" as="geometry"/>
                </mxCell>
                <mxCell id="93" value="#description:text" style="text;strokeColor=none;fillColor=none;align=left;verticalAlign=top;spacingLeft=4;spacingRight=4;overflow=hidden;rotatable=0;points=[[0,0.5],[1,0.5]];portConstraint=eastwest;" parent="80" vertex="1">
                    <mxGeometry y="78" width="240" height="26" as="geometry"/>
                </mxCell>
                <mxCell id="96" value="#address: text" style="text;strokeColor=none;fillColor=none;align=left;verticalAlign=top;spacingLeft=4;spacingRight=4;overflow=hidden;rotatable=0;points=[[0,0.5],[1,0.5]];portConstraint=eastwest;" parent="80" vertex="1">
                    <mxGeometry y="104" width="240" height="26" as="geometry"/>
                </mxCell>
                <mxCell id="98" value="#price: number" style="text;strokeColor=none;fillColor=none;align=left;verticalAlign=top;spacingLeft=4;spacingRight=4;overflow=hidden;rotatable=0;points=[[0,0.5],[1,0.5]];portConstraint=eastwest;" parent="80" vertex="1">
                    <mxGeometry y="130" width="240" height="26" as="geometry"/>
                </mxCell>
                <mxCell id="97" value="#equipped: boolean" style="text;strokeColor=none;fillColor=none;align=left;verticalAlign=top;spacingLeft=4;spacingRight=4;overflow=hidden;rotatable=0;points=[[0,0.5],[1,0.5]];portConstraint=eastwest;" parent="80" vertex="1">
                    <mxGeometry y="156" width="240" height="26" as="geometry"/>
                </mxCell>
                <mxCell id="99" value="#surfacearea:number" style="text;strokeColor=none;fillColor=none;align=left;verticalAlign=top;spacingLeft=4;spacingRight=4;overflow=hidden;rotatable=0;points=[[0,0.5],[1,0.5]];portConstraint=eastwest;" parent="80" vertex="1">
                    <mxGeometry y="182" width="240" height="26" as="geometry"/>
                </mxCell>
                <mxCell id="f4z8Ke3Pi-EXJr0BFJbC-141" value="#isactive:boolean" style="text;strokeColor=none;fillColor=none;align=left;verticalAlign=top;spacingLeft=4;spacingRight=4;overflow=hidden;rotatable=0;points=[[0,0.5],[1,0.5]];portConstraint=eastwest;" parent="80" vertex="1">
                    <mxGeometry y="208" width="240" height="26" as="geometry"/>
                </mxCell>
                <mxCell id="82" value="" style="line;strokeWidth=1;fillColor=none;align=left;verticalAlign=middle;spacingTop=-1;spacingLeft=3;spacingRight=3;rotatable=0;labelPosition=right;points=[];portConstraint=eastwest;strokeColor=inherit;" parent="80" vertex="1">
                    <mxGeometry y="234" width="240" height="8" as="geometry"/>
                </mxCell>
                <mxCell id="83" value="+ addProprety()" style="text;strokeColor=none;fillColor=none;align=left;verticalAlign=top;spacingLeft=4;spacingRight=4;overflow=hidden;rotatable=0;points=[[0,0.5],[1,0.5]];portConstraint=eastwest;" parent="80" vertex="1">
                    <mxGeometry y="242" width="240" height="26" as="geometry"/>
                </mxCell>
                <mxCell id="95" value="+updateProprety()&#10;" style="text;strokeColor=none;fillColor=none;align=left;verticalAlign=top;spacingLeft=4;spacingRight=4;overflow=hidden;rotatable=0;points=[[0,0.5],[1,0.5]];portConstraint=eastwest;" parent="80" vertex="1">
                    <mxGeometry y="268" width="240" height="26" as="geometry"/>
                </mxCell>
                <mxCell id="100" value="+deleteProprety()&#10;" style="text;strokeColor=none;fillColor=none;align=left;verticalAlign=top;spacingLeft=4;spacingRight=4;overflow=hidden;rotatable=0;points=[[0,0.5],[1,0.5]];portConstraint=eastwest;" parent="80" vertex="1">
                    <mxGeometry y="294" width="240" height="26" as="geometry"/>
                </mxCell>
                <mxCell id="101" value="+viewProprety()&#10;" style="text;strokeColor=none;fillColor=none;align=left;verticalAlign=top;spacingLeft=4;spacingRight=4;overflow=hidden;rotatable=0;points=[[0,0.5],[1,0.5]];portConstraint=eastwest;" parent="80" vertex="1">
                    <mxGeometry y="320" width="240" height="26" as="geometry"/>
                </mxCell>
                <mxCell id="102" value="RoommateOffer" style="swimlane;fontStyle=1;align=center;verticalAlign=top;childLayout=stackLayout;horizontal=1;startSize=26;horizontalStack=0;resizeParent=1;resizeParentMax=0;resizeLast=0;collapsible=1;marginBottom=0;" parent="1" vertex="1">
                    <mxGeometry x="285.5" y="640" width="300" height="372" as="geometry"/>
                </mxCell>
                <mxCell id="188" value="" style="endArrow=none;html=1;exitX=0;exitY=0.5;exitDx=0;exitDy=0;" edge="1" parent="102">
                    <mxGeometry width="50" height="50" relative="1" as="geometry">
                        <mxPoint y="40" as="sourcePoint"/>
                        <mxPoint x="-15.5" y="40" as="targetPoint"/>
                        <Array as="points"/>
                    </mxGeometry>
                </mxCell>
                <mxCell id="103" value="#id:number" style="text;strokeColor=none;fillColor=none;align=left;verticalAlign=top;spacingLeft=4;spacingRight=4;overflow=hidden;rotatable=0;points=[[0,0.5],[1,0.5]];portConstraint=eastwest;" parent="102" vertex="1">
                    <mxGeometry y="26" width="300" height="26" as="geometry"/>
                </mxCell>
                <mxCell id="106" value="#address: text" style="text;strokeColor=none;fillColor=none;align=left;verticalAlign=top;spacingLeft=4;spacingRight=4;overflow=hidden;rotatable=0;points=[[0,0.5],[1,0.5]];portConstraint=eastwest;" parent="102" vertex="1">
                    <mxGeometry y="52" width="300" height="26" as="geometry"/>
                </mxCell>
                <mxCell id="107" value="#roomtype:boolean" style="text;strokeColor=none;fillColor=none;align=left;verticalAlign=top;spacingLeft=4;spacingRight=4;overflow=hidden;rotatable=0;points=[[0,0.5],[1,0.5]];portConstraint=eastwest;" parent="102" vertex="1">
                    <mxGeometry y="78" width="300" height="26" as="geometry"/>
                </mxCell>
                <mxCell id="108" value="#budget:number" style="text;strokeColor=none;fillColor=none;align=left;verticalAlign=top;spacingLeft=4;spacingRight=4;overflow=hidden;rotatable=0;points=[[0,0.5],[1,0.5]];portConstraint=eastwest;" parent="102" vertex="1">
                    <mxGeometry y="104" width="300" height="26" as="geometry"/>
                </mxCell>
                <mxCell id="109" value="#numberofRoommate:number" style="text;strokeColor=none;fillColor=none;align=left;verticalAlign=top;spacingLeft=4;spacingRight=4;overflow=hidden;rotatable=0;points=[[0,0.5],[1,0.5]];portConstraint=eastwest;" parent="102" vertex="1">
                    <mxGeometry y="130" width="300" height="26" as="geometry"/>
                </mxCell>
                <mxCell id="135" value="#petperson:boolean" style="text;strokeColor=none;fillColor=none;align=left;verticalAlign=top;spacingLeft=4;spacingRight=4;overflow=hidden;rotatable=0;points=[[0,0.5],[1,0.5]];portConstraint=eastwest;" parent="102" vertex="1">
                    <mxGeometry y="156" width="300" height="26" as="geometry"/>
                </mxCell>
                <mxCell id="136" value="#smoker:boolean" style="text;strokeColor=none;fillColor=none;align=left;verticalAlign=top;spacingLeft=4;spacingRight=4;overflow=hidden;rotatable=0;points=[[0,0.5],[1,0.5]];portConstraint=eastwest;" parent="102" vertex="1">
                    <mxGeometry y="182" width="300" height="26" as="geometry"/>
                </mxCell>
                <mxCell id="137" value="#gender:boolean" style="text;strokeColor=none;fillColor=none;align=left;verticalAlign=top;spacingLeft=4;spacingRight=4;overflow=hidden;rotatable=0;points=[[0,0.5],[1,0.5]];portConstraint=eastwest;" parent="102" vertex="1">
                    <mxGeometry y="208" width="300" height="26" as="geometry"/>
                </mxCell>
                <mxCell id="138" value="#isactive:boolean" style="text;strokeColor=none;fillColor=none;align=left;verticalAlign=top;spacingLeft=4;spacingRight=4;overflow=hidden;rotatable=0;points=[[0,0.5],[1,0.5]];portConstraint=eastwest;" parent="102" vertex="1">
                    <mxGeometry y="234" width="300" height="26" as="geometry"/>
                </mxCell>
                <mxCell id="104" value="" style="line;strokeWidth=1;fillColor=none;align=left;verticalAlign=middle;spacingTop=-1;spacingLeft=3;spacingRight=3;rotatable=0;labelPosition=right;points=[];portConstraint=eastwest;strokeColor=inherit;" parent="102" vertex="1">
                    <mxGeometry y="260" width="300" height="8" as="geometry"/>
                </mxCell>
                <mxCell id="105" value="+ addNewOffer()" style="text;strokeColor=none;fillColor=none;align=left;verticalAlign=top;spacingLeft=4;spacingRight=4;overflow=hidden;rotatable=0;points=[[0,0.5],[1,0.5]];portConstraint=eastwest;" parent="102" vertex="1">
                    <mxGeometry y="268" width="300" height="26" as="geometry"/>
                </mxCell>
                <mxCell id="121" value="+ viewMyOffers()" style="text;strokeColor=none;fillColor=none;align=left;verticalAlign=top;spacingLeft=4;spacingRight=4;overflow=hidden;rotatable=0;points=[[0,0.5],[1,0.5]];portConstraint=eastwest;" parent="102" vertex="1">
                    <mxGeometry y="294" width="300" height="26" as="geometry"/>
                </mxCell>
                <mxCell id="123" value="+ updateMyoffer()" style="text;strokeColor=none;fillColor=none;align=left;verticalAlign=top;spacingLeft=4;spacingRight=4;overflow=hidden;rotatable=0;points=[[0,0.5],[1,0.5]];portConstraint=eastwest;" parent="102" vertex="1">
                    <mxGeometry y="320" width="300" height="26" as="geometry"/>
                </mxCell>
                <mxCell id="183" value="+ deleteMyOffer()" style="text;strokeColor=none;fillColor=none;align=left;verticalAlign=top;spacingLeft=4;spacingRight=4;overflow=hidden;rotatable=0;points=[[0,0.5],[1,0.5]];portConstraint=eastwest;" vertex="1" parent="102">
                    <mxGeometry y="346" width="300" height="26" as="geometry"/>
                </mxCell>
                <mxCell id="125" value="role" style="swimlane;fontStyle=1;align=center;verticalAlign=top;childLayout=stackLayout;horizontal=1;startSize=26;horizontalStack=0;resizeParent=1;resizeParentMax=0;resizeLast=0;collapsible=1;marginBottom=0;" parent="1" vertex="1">
                    <mxGeometry x="41" y="640" width="160" height="86" as="geometry"/>
                </mxCell>
                <mxCell id="126" value="#id: number" style="text;strokeColor=none;fillColor=none;align=left;verticalAlign=top;spacingLeft=4;spacingRight=4;overflow=hidden;rotatable=0;points=[[0,0.5],[1,0.5]];portConstraint=eastwest;" parent="125" vertex="1">
                    <mxGeometry y="26" width="160" height="26" as="geometry"/>
                </mxCell>
                <mxCell id="129" value="#type: text" style="text;strokeColor=none;fillColor=none;align=left;verticalAlign=top;spacingLeft=4;spacingRight=4;overflow=hidden;rotatable=0;points=[[0,0.5],[1,0.5]];portConstraint=eastwest;" parent="125" vertex="1">
                    <mxGeometry y="52" width="160" height="26" as="geometry"/>
                </mxCell>
                <mxCell id="127" value="" style="line;strokeWidth=1;fillColor=none;align=left;verticalAlign=middle;spacingTop=-1;spacingLeft=3;spacingRight=3;rotatable=0;labelPosition=right;points=[];portConstraint=eastwest;strokeColor=inherit;" parent="125" vertex="1">
                    <mxGeometry y="78" width="160" height="8" as="geometry"/>
                </mxCell>
                <mxCell id="f4z8Ke3Pi-EXJr0BFJbC-142" value="" style="endArrow=none;html=1;entryX=-0.007;entryY=0.192;entryDx=0;entryDy=0;entryPerimeter=0;" parent="1" edge="1" target="96">
                    <mxGeometry width="50" height="50" relative="1" as="geometry">
                        <mxPoint x="210" y="159" as="sourcePoint"/>
                        <mxPoint x="440" y="159.9999999999999" as="targetPoint"/>
                    </mxGeometry>
                </mxCell>
                <mxCell id="f4z8Ke3Pi-EXJr0BFJbC-143" value="&lt;font color=&quot;#ffffff&quot;&gt;1..*&lt;/font&gt;" style="text;html=1;strokeColor=none;fillColor=none;align=center;verticalAlign=middle;whiteSpace=wrap;rounded=0;fontColor=#FFCF24;" parent="1" vertex="1">
                    <mxGeometry x="531" y="123" width="60" height="40" as="geometry"/>
                </mxCell>
                <mxCell id="139" value="&lt;font color=&quot;#ffffff&quot;&gt;1..*&lt;/font&gt;" style="text;html=1;strokeColor=none;fillColor=none;align=center;verticalAlign=middle;whiteSpace=wrap;rounded=0;fontColor=#FFCF24;" vertex="1" parent="1">
                    <mxGeometry x="200" y="160" width="60" height="40" as="geometry"/>
                </mxCell>
                <mxCell id="140" value="reservation" style="swimlane;fontStyle=0;childLayout=stackLayout;horizontal=1;startSize=26;fillColor=none;horizontalStack=0;resizeParent=1;resizeParentMax=0;resizeLast=0;collapsible=1;marginBottom=0;html=1;" vertex="1" parent="1">
                    <mxGeometry x="320" y="132" width="140" height="104" as="geometry"/>
                </mxCell>
                <mxCell id="141" value="#id:number" style="text;strokeColor=none;fillColor=none;align=left;verticalAlign=top;spacingLeft=4;spacingRight=4;overflow=hidden;rotatable=0;points=[[0,0.5],[1,0.5]];portConstraint=eastwest;whiteSpace=wrap;html=1;" vertex="1" parent="140">
                    <mxGeometry y="26" width="140" height="26" as="geometry"/>
                </mxCell>
                <mxCell id="142" value="#started: date" style="text;strokeColor=none;fillColor=none;align=left;verticalAlign=top;spacingLeft=4;spacingRight=4;overflow=hidden;rotatable=0;points=[[0,0.5],[1,0.5]];portConstraint=eastwest;whiteSpace=wrap;html=1;" vertex="1" parent="140">
                    <mxGeometry y="52" width="140" height="26" as="geometry"/>
                </mxCell>
                <mxCell id="143" value="#ended:date" style="text;strokeColor=none;fillColor=none;align=left;verticalAlign=top;spacingLeft=4;spacingRight=4;overflow=hidden;rotatable=0;points=[[0,0.5],[1,0.5]];portConstraint=eastwest;whiteSpace=wrap;html=1;" vertex="1" parent="140">
                    <mxGeometry y="78" width="140" height="26" as="geometry"/>
                </mxCell>
                <mxCell id="148" value="specificFournitures" style="swimlane;fontStyle=0;childLayout=stackLayout;horizontal=1;startSize=26;fillColor=none;horizontalStack=0;resizeParent=1;resizeParentMax=0;resizeLast=0;collapsible=1;marginBottom=0;html=1;" vertex="1" parent="1">
                    <mxGeometry x="585.5" y="521" width="229" height="78" as="geometry"/>
                </mxCell>
                <mxCell id="149" value="#id:number" style="text;strokeColor=none;fillColor=none;align=left;verticalAlign=top;spacingLeft=4;spacingRight=4;overflow=hidden;rotatable=0;points=[[0,0.5],[1,0.5]];portConstraint=eastwest;whiteSpace=wrap;html=1;" vertex="1" parent="148">
                    <mxGeometry y="26" width="229" height="26" as="geometry"/>
                </mxCell>
                <mxCell id="150" value="#name: text" style="text;strokeColor=none;fillColor=none;align=left;verticalAlign=top;spacingLeft=4;spacingRight=4;overflow=hidden;rotatable=0;points=[[0,0.5],[1,0.5]];portConstraint=eastwest;whiteSpace=wrap;html=1;" vertex="1" parent="148">
                    <mxGeometry y="52" width="229" height="26" as="geometry"/>
                </mxCell>
                <mxCell id="152" value="" style="endArrow=none;html=1;" edge="1" parent="148">
                    <mxGeometry width="50" height="50" relative="1" as="geometry">
                        <mxPoint x="104.5" y="-126" as="sourcePoint"/>
                        <mxPoint x="104.5" y="-1" as="targetPoint"/>
                    </mxGeometry>
                </mxCell>
                <mxCell id="153" value="&lt;font color=&quot;#ffffff&quot;&gt;1..*&lt;/font&gt;" style="text;html=1;strokeColor=none;fillColor=none;align=center;verticalAlign=middle;whiteSpace=wrap;rounded=0;fontColor=#FFCF24;" vertex="1" parent="1">
                    <mxGeometry x="630" y="395" width="60" height="40" as="geometry"/>
                </mxCell>
                <mxCell id="154" value="&lt;font color=&quot;#ffffff&quot;&gt;1..*&lt;/font&gt;" style="text;html=1;strokeColor=none;fillColor=none;align=center;verticalAlign=middle;whiteSpace=wrap;rounded=0;fontColor=#FFCF24;" vertex="1" parent="1">
                    <mxGeometry x="700" y="480" width="60" height="40" as="geometry"/>
                </mxCell>
                <mxCell id="155" value="image" style="swimlane;fontStyle=1;align=center;verticalAlign=top;childLayout=stackLayout;horizontal=1;startSize=26;horizontalStack=0;resizeParent=1;resizeParentMax=0;resizeLast=0;collapsible=1;marginBottom=0;" vertex="1" parent="1">
                    <mxGeometry x="320" y="263" width="160" height="86" as="geometry"/>
                </mxCell>
                <mxCell id="156" value="#id: number" style="text;strokeColor=none;fillColor=none;align=left;verticalAlign=top;spacingLeft=4;spacingRight=4;overflow=hidden;rotatable=0;points=[[0,0.5],[1,0.5]];portConstraint=eastwest;" vertex="1" parent="155">
                    <mxGeometry y="26" width="160" height="26" as="geometry"/>
                </mxCell>
                <mxCell id="157" value="#image:text" style="text;strokeColor=none;fillColor=none;align=left;verticalAlign=top;spacingLeft=4;spacingRight=4;overflow=hidden;rotatable=0;points=[[0,0.5],[1,0.5]];portConstraint=eastwest;" vertex="1" parent="155">
                    <mxGeometry y="52" width="160" height="26" as="geometry"/>
                </mxCell>
                <mxCell id="158" value="" style="line;strokeWidth=1;fillColor=none;align=left;verticalAlign=middle;spacingTop=-1;spacingLeft=3;spacingRight=3;rotatable=0;labelPosition=right;points=[];portConstraint=eastwest;strokeColor=inherit;" vertex="1" parent="155">
                    <mxGeometry y="78" width="160" height="8" as="geometry"/>
                </mxCell>
                <mxCell id="159" value="" style="endArrow=none;html=1;entryX=-0.007;entryY=0.192;entryDx=0;entryDy=0;entryPerimeter=0;" edge="1" parent="1">
                    <mxGeometry width="50" height="50" relative="1" as="geometry">
                        <mxPoint x="480" y="289" as="sourcePoint"/>
                        <mxPoint x="578.3199999999999" y="289.002" as="targetPoint"/>
                    </mxGeometry>
                </mxCell>
                <mxCell id="160" value="&lt;font color=&quot;#ffffff&quot;&gt;1..*&lt;/font&gt;" style="text;html=1;strokeColor=none;fillColor=none;align=center;verticalAlign=middle;whiteSpace=wrap;rounded=0;fontColor=#FFCF24;" vertex="1" parent="1">
                    <mxGeometry x="462" y="257" width="60" height="40" as="geometry"/>
                </mxCell>
                <mxCell id="161" value="&lt;font color=&quot;#ffffff&quot;&gt;1..1&lt;/font&gt;" style="text;html=1;strokeColor=none;fillColor=none;align=center;verticalAlign=middle;whiteSpace=wrap;rounded=0;fontColor=#FFCF24;" vertex="1" parent="1">
                    <mxGeometry x="532" y="287" width="60" height="40" as="geometry"/>
                </mxCell>
                <mxCell id="162" value="city" style="swimlane;fontStyle=1;align=center;verticalAlign=top;childLayout=stackLayout;horizontal=1;startSize=26;horizontalStack=0;resizeParent=1;resizeParentMax=0;resizeLast=0;collapsible=1;marginBottom=0;" vertex="1" parent="1">
                    <mxGeometry x="320" y="394" width="160" height="86" as="geometry"/>
                </mxCell>
                <mxCell id="163" value="#id: number" style="text;strokeColor=none;fillColor=none;align=left;verticalAlign=top;spacingLeft=4;spacingRight=4;overflow=hidden;rotatable=0;points=[[0,0.5],[1,0.5]];portConstraint=eastwest;" vertex="1" parent="162">
                    <mxGeometry y="26" width="160" height="26" as="geometry"/>
                </mxCell>
                <mxCell id="164" value="#name:text" style="text;strokeColor=none;fillColor=none;align=left;verticalAlign=top;spacingLeft=4;spacingRight=4;overflow=hidden;rotatable=0;points=[[0,0.5],[1,0.5]];portConstraint=eastwest;" vertex="1" parent="162">
                    <mxGeometry y="52" width="160" height="26" as="geometry"/>
                </mxCell>
                <mxCell id="165" value="" style="line;strokeWidth=1;fillColor=none;align=left;verticalAlign=middle;spacingTop=-1;spacingLeft=3;spacingRight=3;rotatable=0;labelPosition=right;points=[];portConstraint=eastwest;strokeColor=inherit;" vertex="1" parent="162">
                    <mxGeometry y="78" width="160" height="8" as="geometry"/>
                </mxCell>
                <mxCell id="166" value="housingType" style="swimlane;fontStyle=1;align=center;verticalAlign=top;childLayout=stackLayout;horizontal=1;startSize=26;horizontalStack=0;resizeParent=1;resizeParentMax=0;resizeLast=0;collapsible=1;marginBottom=0;" vertex="1" parent="1">
                    <mxGeometry x="320" y="490" width="160" height="86" as="geometry"/>
                </mxCell>
                <mxCell id="167" value="#id: number" style="text;strokeColor=none;fillColor=none;align=left;verticalAlign=top;spacingLeft=4;spacingRight=4;overflow=hidden;rotatable=0;points=[[0,0.5],[1,0.5]];portConstraint=eastwest;" vertex="1" parent="166">
                    <mxGeometry y="26" width="160" height="26" as="geometry"/>
                </mxCell>
                <mxCell id="168" value="#name:text" style="text;strokeColor=none;fillColor=none;align=left;verticalAlign=top;spacingLeft=4;spacingRight=4;overflow=hidden;rotatable=0;points=[[0,0.5],[1,0.5]];portConstraint=eastwest;" vertex="1" parent="166">
                    <mxGeometry y="52" width="160" height="26" as="geometry"/>
                </mxCell>
                <mxCell id="169" value="" style="line;strokeWidth=1;fillColor=none;align=left;verticalAlign=middle;spacingTop=-1;spacingLeft=3;spacingRight=3;rotatable=0;labelPosition=right;points=[];portConstraint=eastwest;strokeColor=inherit;" vertex="1" parent="166">
                    <mxGeometry y="78" width="160" height="8" as="geometry"/>
                </mxCell>
                <mxCell id="170" value="" style="endArrow=none;html=1;" edge="1" parent="1">
                    <mxGeometry width="50" height="50" relative="1" as="geometry">
                        <mxPoint x="529" y="349" as="sourcePoint"/>
                        <mxPoint x="529" y="440" as="targetPoint"/>
                        <Array as="points">
                            <mxPoint x="529" y="349"/>
                        </Array>
                    </mxGeometry>
                </mxCell>
                <mxCell id="173" value="" style="endArrow=none;html=1;" edge="1" parent="1">
                    <mxGeometry width="50" height="50" relative="1" as="geometry">
                        <mxPoint x="579" y="349" as="sourcePoint"/>
                        <mxPoint x="529" y="349" as="targetPoint"/>
                        <Array as="points"/>
                    </mxGeometry>
                </mxCell>
                <mxCell id="174" value="" style="endArrow=none;html=1;" edge="1" parent="1">
                    <mxGeometry width="50" height="50" relative="1" as="geometry">
                        <mxPoint x="530" y="440" as="sourcePoint"/>
                        <mxPoint x="480" y="440" as="targetPoint"/>
                        <Array as="points"/>
                    </mxGeometry>
                </mxCell>
                <mxCell id="175" value="" style="endArrow=none;html=1;exitX=0.083;exitY=0.97;exitDx=0;exitDy=0;exitPerimeter=0;" edge="1" parent="1">
                    <mxGeometry width="50" height="50" relative="1" as="geometry">
                        <mxPoint x="599.92" y="395.21999999999997" as="sourcePoint"/>
                        <mxPoint x="600" y="501" as="targetPoint"/>
                        <Array as="points"/>
                    </mxGeometry>
                </mxCell>
                <mxCell id="176" value="" style="endArrow=none;html=1;entryX=1.002;entryY=0.112;entryDx=0;entryDy=0;entryPerimeter=0;" edge="1" parent="1" target="166">
                    <mxGeometry width="50" height="50" relative="1" as="geometry">
                        <mxPoint x="600" y="500" as="sourcePoint"/>
                        <mxPoint x="530.28" y="565.78" as="targetPoint"/>
                        <Array as="points"/>
                    </mxGeometry>
                </mxCell>
                <mxCell id="177" value="&lt;font color=&quot;#ffffff&quot;&gt;1..*&lt;/font&gt;" style="text;html=1;strokeColor=none;fillColor=none;align=center;verticalAlign=middle;whiteSpace=wrap;rounded=0;fontColor=#FFCF24;" vertex="1" parent="1">
                    <mxGeometry x="525.5" y="342" width="60" height="40" as="geometry"/>
                </mxCell>
                <mxCell id="178" value="&lt;font color=&quot;#ffffff&quot;&gt;1..1&lt;/font&gt;" style="text;html=1;strokeColor=none;fillColor=none;align=center;verticalAlign=middle;whiteSpace=wrap;rounded=0;fontColor=#FFCF24;" vertex="1" parent="1">
                    <mxGeometry x="462" y="430" width="60" height="40" as="geometry"/>
                </mxCell>
                <mxCell id="180" value="&lt;font color=&quot;#ffffff&quot;&gt;1..1&lt;/font&gt;" style="text;html=1;strokeColor=none;fillColor=none;align=center;verticalAlign=middle;whiteSpace=wrap;rounded=0;fontColor=#FFCF24;" vertex="1" parent="1">
                    <mxGeometry x="471" y="470" width="60" height="40" as="geometry"/>
                </mxCell>
                <mxCell id="182" value="&lt;font color=&quot;#ffffff&quot;&gt;1..*&lt;/font&gt;" style="text;html=1;strokeColor=none;fillColor=none;align=center;verticalAlign=middle;whiteSpace=wrap;rounded=0;fontColor=#FFCF24;" vertex="1" parent="1">
                    <mxGeometry x="550" y="394" width="60" height="40" as="geometry"/>
                </mxCell>
                <mxCell id="184" value="" style="endArrow=none;html=1;" edge="1" parent="1">
                    <mxGeometry width="50" height="50" relative="1" as="geometry">
                        <mxPoint x="270" y="635" as="sourcePoint"/>
                        <mxPoint x="270" y="680" as="targetPoint"/>
                        <Array as="points">
                            <mxPoint x="270" y="545"/>
                        </Array>
                    </mxGeometry>
                </mxCell>
                <mxCell id="187" value="" style="endArrow=none;html=1;exitX=0;exitY=0.308;exitDx=0;exitDy=0;exitPerimeter=0;" edge="1" parent="1" source="168">
                    <mxGeometry width="50" height="50" relative="1" as="geometry">
                        <mxPoint x="290" y="585" as="sourcePoint"/>
                        <mxPoint x="270" y="550" as="targetPoint"/>
                        <Array as="points"/>
                    </mxGeometry>
                </mxCell>
                <mxCell id="189" value="" style="endArrow=none;html=1;" edge="1" parent="1">
                    <mxGeometry width="50" height="50" relative="1" as="geometry">
                        <mxPoint x="250" y="640" as="sourcePoint"/>
                        <mxPoint x="250" y="730" as="targetPoint"/>
                        <Array as="points">
                            <mxPoint x="250" y="430"/>
                        </Array>
                    </mxGeometry>
                </mxCell>
                <mxCell id="190" value="" style="endArrow=none;html=1;exitX=0;exitY=0.5;exitDx=0;exitDy=0;" edge="1" parent="1">
                    <mxGeometry width="50" height="50" relative="1" as="geometry">
                        <mxPoint x="320" y="434.99999999999994" as="sourcePoint"/>
                        <mxPoint x="250" y="435" as="targetPoint"/>
                        <Array as="points"/>
                    </mxGeometry>
                </mxCell>
                <mxCell id="191" value="" style="endArrow=none;html=1;exitX=0;exitY=0.308;exitDx=0;exitDy=0;exitPerimeter=0;" edge="1" parent="1">
                    <mxGeometry width="50" height="50" relative="1" as="geometry">
                        <mxPoint x="285.5" y="730.008" as="sourcePoint"/>
                        <mxPoint x="250" y="730" as="targetPoint"/>
                        <Array as="points"/>
                    </mxGeometry>
                </mxCell>
                <mxCell id="192" value="" style="endArrow=none;html=1;" edge="1" parent="1">
                    <mxGeometry width="50" height="50" relative="1" as="geometry">
                        <mxPoint x="228.56999999999977" y="645" as="sourcePoint"/>
                        <mxPoint x="229" y="780" as="targetPoint"/>
                        <Array as="points">
                            <mxPoint x="229" y="280"/>
                        </Array>
                    </mxGeometry>
                </mxCell>
                <mxCell id="193" value="" style="endArrow=none;html=1;" edge="1" parent="1">
                    <mxGeometry width="50" height="50" relative="1" as="geometry">
                        <mxPoint x="285" y="780" as="sourcePoint"/>
                        <mxPoint x="230" y="780" as="targetPoint"/>
                        <Array as="points"/>
                    </mxGeometry>
                </mxCell>
                <mxCell id="196" value="" style="endArrow=none;html=1;" edge="1" parent="1">
                    <mxGeometry width="50" height="50" relative="1" as="geometry">
                        <mxPoint x="230" y="285" as="sourcePoint"/>
                        <mxPoint x="210" y="285" as="targetPoint"/>
                        <Array as="points"/>
                    </mxGeometry>
                </mxCell>
                <mxCell id="197" value="&lt;font color=&quot;#ffffff&quot;&gt;1..1&lt;sup&gt;&lt;br&gt;&lt;/sup&gt;&lt;/font&gt;" style="text;html=1;strokeColor=none;fillColor=none;align=center;verticalAlign=middle;whiteSpace=wrap;rounded=0;fontColor=#FFCF24;" vertex="1" parent="1">
                    <mxGeometry x="230" y="550" width="140" height="30" as="geometry"/>
                </mxCell>
                <mxCell id="198" value="&lt;font color=&quot;#ffffff&quot;&gt;1..*&lt;sup&gt;&lt;br&gt;&lt;/sup&gt;&lt;/font&gt;" style="text;html=1;strokeColor=none;fillColor=none;align=center;verticalAlign=middle;whiteSpace=wrap;rounded=0;fontColor=#FFCF24;" vertex="1" parent="1">
                    <mxGeometry x="220" y="613" width="140" height="30" as="geometry"/>
                </mxCell>
                <mxCell id="199" value="&lt;font color=&quot;#ffffff&quot;&gt;1..*&lt;sup&gt;&lt;br&gt;&lt;/sup&gt;&lt;/font&gt;" style="text;html=1;strokeColor=none;fillColor=none;align=center;verticalAlign=middle;whiteSpace=wrap;rounded=0;fontColor=#FFCF24;" vertex="1" parent="1">
                    <mxGeometry x="120" y="688" width="300" height="30" as="geometry"/>
                </mxCell>
                <mxCell id="201" value="&lt;font color=&quot;#ffffff&quot;&gt;1..1&lt;sup&gt;&lt;br&gt;&lt;/sup&gt;&lt;/font&gt;" style="text;html=1;strokeColor=none;fillColor=none;align=center;verticalAlign=middle;whiteSpace=wrap;rounded=0;fontColor=#FFCF24;" vertex="1" parent="1">
                    <mxGeometry x="220" y="435" width="140" height="30" as="geometry"/>
                </mxCell>
                <mxCell id="202" value="&lt;font color=&quot;#ffffff&quot;&gt;1..1&lt;sup&gt;&lt;br&gt;&lt;/sup&gt;&lt;/font&gt;" style="text;html=1;strokeColor=none;fillColor=none;align=center;verticalAlign=middle;whiteSpace=wrap;rounded=0;fontColor=#FFCF24;" vertex="1" parent="1">
                    <mxGeometry x="180" y="280" width="140" height="30" as="geometry"/>
                </mxCell>
                <mxCell id="203" value="&lt;font color=&quot;#ffffff&quot;&gt;1,*&lt;/font&gt;" style="text;html=1;strokeColor=none;fillColor=none;align=center;verticalAlign=middle;whiteSpace=wrap;rounded=0;fontColor=#FFCF24;" vertex="1" parent="1">
                    <mxGeometry x="170" y="780" width="140" height="30" as="geometry"/>
                </mxCell>
            </root>
        </mxGraphModel>
    </diagram>
    <diagram id="UlTyNprH5L3pt8KQsLSM" name="use case diagram">
        <mxGraphModel dx="1510" dy="1675" grid="1" gridSize="10" guides="1" tooltips="1" connect="1" arrows="1" fold="1" page="1" pageScale="1" pageWidth="850" pageHeight="1100" math="0" shadow="0">
            <root>
                <mxCell id="0"/>
                <mxCell id="1" parent="0"/>
                <mxCell id="AJxJs07C6C-_s4xwAS3U-2" value="FIND YOUR ROOMMATE" style="shape=umlFrame;whiteSpace=wrap;html=1;width=200;height=30;" parent="1" vertex="1">
                    <mxGeometry x="130" y="-1069" width="690" height="990" as="geometry"/>
                </mxCell>
                <mxCell id="AJxJs07C6C-_s4xwAS3U-3" value="visiteur" style="shape=umlActor;verticalLabelPosition=bottom;verticalAlign=top;html=1;" parent="1" vertex="1">
                    <mxGeometry x="60" y="-980" width="30" height="60" as="geometry"/>
                </mxCell>
                <mxCell id="AJxJs07C6C-_s4xwAS3U-4" value="colocataire" style="shape=umlActor;verticalLabelPosition=bottom;verticalAlign=top;html=1;" parent="1" vertex="1">
                    <mxGeometry x="60" y="-760" width="30" height="60" as="geometry"/>
                </mxCell>
                <mxCell id="AJxJs07C6C-_s4xwAS3U-7" value="Administrateur" style="shape=umlActor;verticalLabelPosition=bottom;verticalAlign=top;html=1;" parent="1" vertex="1">
                    <mxGeometry x="60" y="-190" width="30" height="60" as="geometry"/>
                </mxCell>
                <mxCell id="AJxJs07C6C-_s4xwAS3U-8" value="locataire" style="shape=umlActor;verticalLabelPosition=bottom;verticalAlign=top;html=1;" parent="1" vertex="1">
                    <mxGeometry x="60" y="-440" width="30" height="60" as="geometry"/>
                </mxCell>
                <mxCell id="AJxJs07C6C-_s4xwAS3U-14" value="Voir les offres&amp;nbsp; de collocation/ location" style="ellipse;whiteSpace=wrap;html=1;" parent="1" vertex="1">
                    <mxGeometry x="330" y="-1010" width="200" height="50" as="geometry"/>
                </mxCell>
                <mxCell id="AJxJs07C6C-_s4xwAS3U-15" value="Créer un compte" style="ellipse;whiteSpace=wrap;html=1;" parent="1" vertex="1">
                    <mxGeometry x="340" y="-950" width="200" height="50" as="geometry"/>
                </mxCell>
                <mxCell id="AJxJs07C6C-_s4xwAS3U-16" value="Ajouter un offre de collocation" style="ellipse;whiteSpace=wrap;html=1;" parent="1" vertex="1">
                    <mxGeometry x="330" y="-850" width="200" height="50" as="geometry"/>
                </mxCell>
                <mxCell id="AJxJs07C6C-_s4xwAS3U-17" value="Voir les details de chaque offre" style="ellipse;whiteSpace=wrap;html=1;" parent="1" vertex="1">
                    <mxGeometry x="630" y="-980" width="180" height="40" as="geometry"/>
                </mxCell>
                <mxCell id="AJxJs07C6C-_s4xwAS3U-18" value="Modifier un offre de collocation" style="ellipse;whiteSpace=wrap;html=1;" parent="1" vertex="1">
                    <mxGeometry x="325" y="-790" width="200" height="50" as="geometry"/>
                </mxCell>
                <mxCell id="AJxJs07C6C-_s4xwAS3U-19" value="Supprimer un offre de collocation" style="ellipse;whiteSpace=wrap;html=1;" parent="1" vertex="1">
                    <mxGeometry x="325" y="-730" width="200" height="50" as="geometry"/>
                </mxCell>
                <mxCell id="AJxJs07C6C-_s4xwAS3U-20" value="Ajouter un offre de Location" style="ellipse;whiteSpace=wrap;html=1;" parent="1" vertex="1">
                    <mxGeometry x="330" y="-550" width="200" height="50" as="geometry"/>
                </mxCell>
                <mxCell id="AJxJs07C6C-_s4xwAS3U-21" value="Supprimer un offre de Location" style="ellipse;whiteSpace=wrap;html=1;" parent="1" vertex="1">
                    <mxGeometry x="330" y="-490" width="200" height="50" as="geometry"/>
                </mxCell>
                <mxCell id="AJxJs07C6C-_s4xwAS3U-22" value="Modifier un offre de Location" style="ellipse;whiteSpace=wrap;html=1;" parent="1" vertex="1">
                    <mxGeometry x="330" y="-430" width="200" height="50" as="geometry"/>
                </mxCell>
                <mxCell id="AJxJs07C6C-_s4xwAS3U-23" value="Voir&amp;nbsp; mes offres de collocation" style="ellipse;whiteSpace=wrap;html=1;" parent="1" vertex="1">
                    <mxGeometry x="325" y="-670" width="200" height="50" as="geometry"/>
                </mxCell>
                <mxCell id="AJxJs07C6C-_s4xwAS3U-24" value="Voir&amp;nbsp; mes offres de location" style="ellipse;whiteSpace=wrap;html=1;" parent="1" vertex="1">
                    <mxGeometry x="330" y="-370" width="200" height="50" as="geometry"/>
                </mxCell>
                <mxCell id="AJxJs07C6C-_s4xwAS3U-25" value="Archiver les offres&amp;nbsp;" style="ellipse;whiteSpace=wrap;html=1;" parent="1" vertex="1">
                    <mxGeometry x="330" y="-260" width="200" height="50" as="geometry"/>
                </mxCell>
                <mxCell id="o_NzyPv4uc6NCIbX0gtw-1" value="" style="endArrow=none;html=1;entryX=0;entryY=0.5;entryDx=0;entryDy=0;" parent="1" target="AJxJs07C6C-_s4xwAS3U-14" edge="1">
                    <mxGeometry width="50" height="50" relative="1" as="geometry">
                        <mxPoint x="100" y="-950" as="sourcePoint"/>
                        <mxPoint x="150" y="-980" as="targetPoint"/>
                    </mxGeometry>
                </mxCell>
                <mxCell id="o_NzyPv4uc6NCIbX0gtw-2" value="" style="endArrow=none;html=1;entryX=0;entryY=0.5;entryDx=0;entryDy=0;" parent="1" target="AJxJs07C6C-_s4xwAS3U-15" edge="1">
                    <mxGeometry width="50" height="50" relative="1" as="geometry">
                        <mxPoint x="100" y="-950" as="sourcePoint"/>
                        <mxPoint x="340" y="-975" as="targetPoint"/>
                    </mxGeometry>
                </mxCell>
                <mxCell id="o_NzyPv4uc6NCIbX0gtw-3" value="" style="endArrow=none;html=1;entryX=0;entryY=0.5;entryDx=0;entryDy=0;" parent="1" target="AJxJs07C6C-_s4xwAS3U-16" edge="1">
                    <mxGeometry width="50" height="50" relative="1" as="geometry">
                        <mxPoint x="110" y="-720" as="sourcePoint"/>
                        <mxPoint x="590" y="-820" as="targetPoint"/>
                    </mxGeometry>
                </mxCell>
                <mxCell id="o_NzyPv4uc6NCIbX0gtw-4" value="" style="endArrow=none;html=1;entryX=0;entryY=0.5;entryDx=0;entryDy=0;" parent="1" target="AJxJs07C6C-_s4xwAS3U-18" edge="1">
                    <mxGeometry width="50" height="50" relative="1" as="geometry">
                        <mxPoint x="110" y="-720" as="sourcePoint"/>
                        <mxPoint x="340" y="-815" as="targetPoint"/>
                    </mxGeometry>
                </mxCell>
                <mxCell id="o_NzyPv4uc6NCIbX0gtw-5" value="" style="endArrow=none;html=1;entryX=0;entryY=0.5;entryDx=0;entryDy=0;" parent="1" target="AJxJs07C6C-_s4xwAS3U-19" edge="1">
                    <mxGeometry width="50" height="50" relative="1" as="geometry">
                        <mxPoint x="110" y="-720" as="sourcePoint"/>
                        <mxPoint x="335" y="-755" as="targetPoint"/>
                    </mxGeometry>
                </mxCell>
                <mxCell id="o_NzyPv4uc6NCIbX0gtw-6" value="" style="endArrow=none;html=1;entryX=0;entryY=0.5;entryDx=0;entryDy=0;" parent="1" target="AJxJs07C6C-_s4xwAS3U-23" edge="1">
                    <mxGeometry width="50" height="50" relative="1" as="geometry">
                        <mxPoint x="110" y="-720" as="sourcePoint"/>
                        <mxPoint x="335" y="-695" as="targetPoint"/>
                    </mxGeometry>
                </mxCell>
                <mxCell id="o_NzyPv4uc6NCIbX0gtw-9" value="" style="endArrow=none;html=1;entryX=0;entryY=0.5;entryDx=0;entryDy=0;" parent="1" target="AJxJs07C6C-_s4xwAS3U-20" edge="1">
                    <mxGeometry width="50" height="50" relative="1" as="geometry">
                        <mxPoint x="110" y="-400" as="sourcePoint"/>
                        <mxPoint x="510" y="-500" as="targetPoint"/>
                    </mxGeometry>
                </mxCell>
                <mxCell id="o_NzyPv4uc6NCIbX0gtw-10" value="" style="endArrow=none;html=1;entryX=0;entryY=0.5;entryDx=0;entryDy=0;" parent="1" target="AJxJs07C6C-_s4xwAS3U-21" edge="1">
                    <mxGeometry width="50" height="50" relative="1" as="geometry">
                        <mxPoint x="110" y="-400" as="sourcePoint"/>
                        <mxPoint x="340" y="-515" as="targetPoint"/>
                    </mxGeometry>
                </mxCell>
                <mxCell id="o_NzyPv4uc6NCIbX0gtw-11" value="" style="endArrow=none;html=1;entryX=0;entryY=0.5;entryDx=0;entryDy=0;" parent="1" target="AJxJs07C6C-_s4xwAS3U-22" edge="1">
                    <mxGeometry width="50" height="50" relative="1" as="geometry">
                        <mxPoint x="110" y="-400" as="sourcePoint"/>
                        <mxPoint x="340" y="-455" as="targetPoint"/>
                    </mxGeometry>
                </mxCell>
                <mxCell id="o_NzyPv4uc6NCIbX0gtw-12" value="" style="endArrow=none;html=1;entryX=0;entryY=0.5;entryDx=0;entryDy=0;" parent="1" target="AJxJs07C6C-_s4xwAS3U-24" edge="1">
                    <mxGeometry width="50" height="50" relative="1" as="geometry">
                        <mxPoint x="110" y="-400" as="sourcePoint"/>
                        <mxPoint x="340" y="-395" as="targetPoint"/>
                    </mxGeometry>
                </mxCell>
                <mxCell id="o_NzyPv4uc6NCIbX0gtw-14" value="" style="endArrow=none;html=1;entryX=0;entryY=0.5;entryDx=0;entryDy=0;" parent="1" target="AJxJs07C6C-_s4xwAS3U-25" edge="1">
                    <mxGeometry width="50" height="50" relative="1" as="geometry">
                        <mxPoint x="110" y="-150" as="sourcePoint"/>
                        <mxPoint x="510" y="-300" as="targetPoint"/>
                    </mxGeometry>
                </mxCell>
                <mxCell id="ElbaeHOR-Uijz-XI7cZ5-1" value="" style="endArrow=none;html=1;exitX=1;exitY=0.5;exitDx=0;exitDy=0;entryX=0;entryY=0.5;entryDx=0;entryDy=0;" parent="1" source="AJxJs07C6C-_s4xwAS3U-14" target="AJxJs07C6C-_s4xwAS3U-17" edge="1">
                    <mxGeometry width="50" height="50" relative="1" as="geometry">
                        <mxPoint x="530" y="-780" as="sourcePoint"/>
                        <mxPoint x="580" y="-830" as="targetPoint"/>
                    </mxGeometry>
                </mxCell>
                <mxCell id="ElbaeHOR-Uijz-XI7cZ5-2" value="Login" style="ellipse;whiteSpace=wrap;html=1;" parent="1" vertex="1">
                    <mxGeometry x="670" y="-600" width="140" height="70" as="geometry"/>
                </mxCell>
                <mxCell id="ElbaeHOR-Uijz-XI7cZ5-3" value="" style="endArrow=block;dashed=1;endFill=0;endSize=12;html=1;exitX=1;exitY=0.5;exitDx=0;exitDy=0;" parent="1" source="AJxJs07C6C-_s4xwAS3U-16" target="ElbaeHOR-Uijz-XI7cZ5-2" edge="1">
                    <mxGeometry width="160" relative="1" as="geometry">
                        <mxPoint x="520" y="-570" as="sourcePoint"/>
                        <mxPoint x="680" y="-570" as="targetPoint"/>
                    </mxGeometry>
                </mxCell>
                <mxCell id="ElbaeHOR-Uijz-XI7cZ5-4" value="" style="endArrow=block;dashed=1;endFill=0;endSize=12;html=1;entryX=0;entryY=0;entryDx=0;entryDy=0;" parent="1" target="ElbaeHOR-Uijz-XI7cZ5-2" edge="1">
                    <mxGeometry width="160" relative="1" as="geometry">
                        <mxPoint x="530" y="-760" as="sourcePoint"/>
                        <mxPoint x="670" y="-570" as="targetPoint"/>
                    </mxGeometry>
                </mxCell>
                <mxCell id="ElbaeHOR-Uijz-XI7cZ5-5" value="" style="endArrow=block;dashed=1;endFill=0;endSize=12;html=1;entryX=0.051;entryY=0.269;entryDx=0;entryDy=0;entryPerimeter=0;" parent="1" target="ElbaeHOR-Uijz-XI7cZ5-2" edge="1">
                    <mxGeometry width="160" relative="1" as="geometry">
                        <mxPoint x="525" y="-706" as="sourcePoint"/>
                        <mxPoint x="670" y="-560" as="targetPoint"/>
                    </mxGeometry>
                </mxCell>
                <mxCell id="ElbaeHOR-Uijz-XI7cZ5-6" value="" style="endArrow=block;dashed=1;endFill=0;endSize=12;html=1;entryX=-0.003;entryY=0.361;entryDx=0;entryDy=0;entryPerimeter=0;" parent="1" target="ElbaeHOR-Uijz-XI7cZ5-2" edge="1">
                    <mxGeometry width="160" relative="1" as="geometry">
                        <mxPoint x="520" y="-640" as="sourcePoint"/>
                        <mxPoint x="670" y="-570" as="targetPoint"/>
                    </mxGeometry>
                </mxCell>
                <mxCell id="ElbaeHOR-Uijz-XI7cZ5-7" value="" style="endArrow=block;dashed=1;endFill=0;endSize=12;html=1;entryX=0;entryY=0.5;entryDx=0;entryDy=0;" parent="1" target="ElbaeHOR-Uijz-XI7cZ5-2" edge="1">
                    <mxGeometry width="160" relative="1" as="geometry">
                        <mxPoint x="530" y="-520" as="sourcePoint"/>
                        <mxPoint x="690" y="-520" as="targetPoint"/>
                    </mxGeometry>
                </mxCell>
                <mxCell id="ElbaeHOR-Uijz-XI7cZ5-8" value="" style="endArrow=block;dashed=1;endFill=0;endSize=12;html=1;entryX=0.03;entryY=0.678;entryDx=0;entryDy=0;exitX=1;exitY=0.5;exitDx=0;exitDy=0;entryPerimeter=0;" parent="1" source="AJxJs07C6C-_s4xwAS3U-21" target="ElbaeHOR-Uijz-XI7cZ5-2" edge="1">
                    <mxGeometry width="160" relative="1" as="geometry">
                        <mxPoint x="540" y="-510" as="sourcePoint"/>
                        <mxPoint x="680" y="-555" as="targetPoint"/>
                    </mxGeometry>
                </mxCell>
                <mxCell id="ElbaeHOR-Uijz-XI7cZ5-9" value="" style="endArrow=block;dashed=1;endFill=0;endSize=12;html=1;exitX=1;exitY=0;exitDx=0;exitDy=0;" parent="1" source="AJxJs07C6C-_s4xwAS3U-22" edge="1">
                    <mxGeometry width="160" relative="1" as="geometry">
                        <mxPoint x="540" y="-455" as="sourcePoint"/>
                        <mxPoint x="690" y="-540" as="targetPoint"/>
                    </mxGeometry>
                </mxCell>
                <mxCell id="ElbaeHOR-Uijz-XI7cZ5-10" value="" style="endArrow=block;dashed=1;endFill=0;endSize=12;html=1;exitX=1;exitY=0;exitDx=0;exitDy=0;entryX=0.272;entryY=0.971;entryDx=0;entryDy=0;entryPerimeter=0;" parent="1" source="AJxJs07C6C-_s4xwAS3U-24" target="ElbaeHOR-Uijz-XI7cZ5-2" edge="1">
                    <mxGeometry width="160" relative="1" as="geometry">
                        <mxPoint x="510.71067811865464" y="-412.6776695296637" as="sourcePoint"/>
                        <mxPoint x="700" y="-530" as="targetPoint"/>
                    </mxGeometry>
                </mxCell>
                <mxCell id="ElbaeHOR-Uijz-XI7cZ5-11" value="" style="endArrow=block;dashed=1;endFill=0;endSize=12;html=1;exitX=1;exitY=0.5;exitDx=0;exitDy=0;" parent="1" source="AJxJs07C6C-_s4xwAS3U-25" target="ElbaeHOR-Uijz-XI7cZ5-2" edge="1">
                    <mxGeometry width="160" relative="1" as="geometry">
                        <mxPoint x="511.500666901306" y="-352.4779407980968" as="sourcePoint"/>
                        <mxPoint x="718.0799999999999" y="-522.03" as="targetPoint"/>
                    </mxGeometry>
                </mxCell>
                <mxCell id="ElbaeHOR-Uijz-XI7cZ5-13" value="&amp;lt;&amp;lt;include &amp;gt;&amp;gt;" style="text;html=1;strokeColor=none;fillColor=none;align=center;verticalAlign=middle;whiteSpace=wrap;rounded=0;rotation=45;" parent="1" vertex="1">
                    <mxGeometry x="570" y="-760" width="90" height="30" as="geometry"/>
                </mxCell>
                <mxCell id="ElbaeHOR-Uijz-XI7cZ5-14" value="&amp;lt;&amp;lt;include &amp;gt;&amp;gt;" style="text;html=1;strokeColor=none;fillColor=none;align=center;verticalAlign=middle;whiteSpace=wrap;rounded=0;rotation=45;" parent="1" vertex="1">
                    <mxGeometry x="550" y="-720" width="90" height="30" as="geometry"/>
                </mxCell>
                <mxCell id="ElbaeHOR-Uijz-XI7cZ5-15" value="&amp;lt;&amp;lt;include &amp;gt;&amp;gt;" style="text;html=1;strokeColor=none;fillColor=none;align=center;verticalAlign=middle;whiteSpace=wrap;rounded=0;rotation=45;" parent="1" vertex="1">
                    <mxGeometry x="530" y="-690" width="90" height="30" as="geometry"/>
                </mxCell>
                <mxCell id="ElbaeHOR-Uijz-XI7cZ5-16" value="&amp;lt;&amp;lt;include &amp;gt;&amp;gt;" style="text;html=1;strokeColor=none;fillColor=none;align=center;verticalAlign=middle;whiteSpace=wrap;rounded=0;rotation=30;" parent="1" vertex="1">
                    <mxGeometry x="530" y="-640" width="90" height="30" as="geometry"/>
                </mxCell>
                <mxCell id="ElbaeHOR-Uijz-XI7cZ5-17" value="&amp;lt;&amp;lt;include &amp;gt;&amp;gt;" style="text;html=1;strokeColor=none;fillColor=none;align=center;verticalAlign=middle;whiteSpace=wrap;rounded=0;rotation=-15;" parent="1" vertex="1">
                    <mxGeometry x="540" y="-565" width="90" height="30" as="geometry"/>
                </mxCell>
                <mxCell id="ElbaeHOR-Uijz-XI7cZ5-18" value="&amp;lt;&amp;lt;include &amp;gt;&amp;gt;" style="text;html=1;strokeColor=none;fillColor=none;align=center;verticalAlign=middle;whiteSpace=wrap;rounded=0;rotation=-30;" parent="1" vertex="1">
                    <mxGeometry x="550" y="-535" width="90" height="30" as="geometry"/>
                </mxCell>
                <mxCell id="ElbaeHOR-Uijz-XI7cZ5-20" value="&amp;lt;&amp;lt;include &amp;gt;&amp;gt;" style="text;html=1;strokeColor=none;fillColor=none;align=center;verticalAlign=middle;whiteSpace=wrap;rounded=0;rotation=-30;" parent="1" vertex="1">
                    <mxGeometry x="560" y="-512" width="90" height="30" as="geometry"/>
                </mxCell>
                <mxCell id="ElbaeHOR-Uijz-XI7cZ5-22" value="&amp;lt;&amp;lt;include &amp;gt;&amp;gt;" style="text;html=1;strokeColor=none;fillColor=none;align=center;verticalAlign=middle;whiteSpace=wrap;rounded=0;rotation=-45;" parent="1" vertex="1">
                    <mxGeometry x="569" y="-483" width="90" height="30" as="geometry"/>
                </mxCell>
                <mxCell id="ElbaeHOR-Uijz-XI7cZ5-23" value="&amp;lt;&amp;lt;include &amp;gt;&amp;gt;" style="text;html=1;strokeColor=none;fillColor=none;align=center;verticalAlign=middle;whiteSpace=wrap;rounded=0;rotation=-60;" parent="1" vertex="1">
                    <mxGeometry x="560" y="-378" width="90" height="30" as="geometry"/>
                </mxCell>
                <mxCell id="SLBRe2961K8aNQYSA5d--1" value="" style="endArrow=classic;html=1;" parent="1" edge="1">
                    <mxGeometry width="50" height="50" relative="1" as="geometry">
                        <mxPoint x="76" y="-780" as="sourcePoint"/>
                        <mxPoint x="76" y="-890" as="targetPoint"/>
                    </mxGeometry>
                </mxCell>
                <mxCell id="SLBRe2961K8aNQYSA5d--2" value="" style="endArrow=classic;html=1;" parent="1" edge="1">
                    <mxGeometry width="50" height="50" relative="1" as="geometry">
                        <mxPoint x="43" y="-440" as="sourcePoint"/>
                        <mxPoint x="43" y="-920" as="targetPoint"/>
                    </mxGeometry>
                </mxCell>
                <mxCell id="SLBRe2961K8aNQYSA5d--4" value="Voir les statistiques&amp;nbsp;" style="ellipse;whiteSpace=wrap;html=1;" parent="1" vertex="1">
                    <mxGeometry x="340" y="-140" width="200" height="50" as="geometry"/>
                </mxCell>
                <mxCell id="SLBRe2961K8aNQYSA5d--5" value="" style="endArrow=none;html=1;entryX=0;entryY=0.5;entryDx=0;entryDy=0;" parent="1" edge="1">
                    <mxGeometry width="50" height="50" relative="1" as="geometry">
                        <mxPoint x="110" y="-150" as="sourcePoint"/>
                        <mxPoint x="340" y="-110" as="targetPoint"/>
                    </mxGeometry>
                </mxCell>
                <mxCell id="SLBRe2961K8aNQYSA5d--6" value="" style="endArrow=block;dashed=1;endFill=0;endSize=12;html=1;exitX=1;exitY=0.5;exitDx=0;exitDy=0;" parent="1" edge="1">
                    <mxGeometry width="160" relative="1" as="geometry">
                        <mxPoint x="540" y="-114.5" as="sourcePoint"/>
                        <mxPoint x="740" y="-530" as="targetPoint"/>
                    </mxGeometry>
                </mxCell>
                <mxCell id="SLBRe2961K8aNQYSA5d--7" value="&amp;lt;&amp;lt;include &amp;gt;&amp;gt;" style="text;html=1;strokeColor=none;fillColor=none;align=center;verticalAlign=middle;whiteSpace=wrap;rounded=0;rotation=-60;" parent="1" vertex="1">
                    <mxGeometry x="530" y="-230" width="90" height="30" as="geometry"/>
                </mxCell>
            </root>
        </mxGraphModel>
    </diagram>
    <diagram id="GhbvZgkigZbxrwilX4B9" name="diagramme de sequance">
        <mxGraphModel dx="1007" dy="383" grid="1" gridSize="10" guides="1" tooltips="1" connect="1" arrows="1" fold="1" page="1" pageScale="1" pageWidth="850" pageHeight="1100" math="0" shadow="0">
            <root>
                <mxCell id="0"/>
                <mxCell id="1" parent="0"/>
                <mxCell id="sEaq5n1_qbvqVbGwh62S-4" value="&lt;font style=&quot;font-size: 24px;&quot;&gt;&lt;b&gt;Login :&lt;/b&gt;&lt;/font&gt;" style="text;strokeColor=none;fillColor=none;align=left;verticalAlign=middle;spacingLeft=4;spacingRight=4;overflow=hidden;points=[[0,0.5],[1,0.5]];portConstraint=eastwest;rotatable=0;whiteSpace=wrap;html=1;fontSize=14;" parent="1" vertex="1">
                    <mxGeometry x="10" y="10" width="210" height="30" as="geometry"/>
                </mxCell>
                <mxCell id="sEaq5n1_qbvqVbGwh62S-5" value="" style="endArrow=none;dashed=1;html=1;fontSize=14;" parent="1" edge="1">
                    <mxGeometry width="50" height="50" relative="1" as="geometry">
                        <mxPoint x="554" y="580" as="sourcePoint"/>
                        <mxPoint x="554.09" y="160" as="targetPoint"/>
                    </mxGeometry>
                </mxCell>
                <mxCell id="sEaq5n1_qbvqVbGwh62S-11" value="" style="endArrow=none;dashed=1;html=1;fontSize=14;" parent="1" target="sEaq5n1_qbvqVbGwh62S-10" edge="1">
                    <mxGeometry width="50" height="50" relative="1" as="geometry">
                        <mxPoint x="160" y="570" as="sourcePoint"/>
                        <mxPoint x="160" y="170" as="targetPoint"/>
                    </mxGeometry>
                </mxCell>
                <mxCell id="sEaq5n1_qbvqVbGwh62S-17" value="" style="endArrow=none;dashed=1;html=1;fontSize=14;" parent="1" target="sEaq5n1_qbvqVbGwh62S-16" edge="1">
                    <mxGeometry width="50" height="50" relative="1" as="geometry">
                        <mxPoint x="360" y="580" as="sourcePoint"/>
                        <mxPoint x="360.09000000000015" y="160" as="targetPoint"/>
                    </mxGeometry>
                </mxCell>
                <mxCell id="sEaq5n1_qbvqVbGwh62S-20" value="" style="endArrow=none;dashed=1;html=1;fontSize=14;" parent="1" target="sEaq5n1_qbvqVbGwh62S-19" edge="1">
                    <mxGeometry width="50" height="50" relative="1" as="geometry">
                        <mxPoint x="790" y="570" as="sourcePoint"/>
                        <mxPoint x="790.0900000000001" y="160" as="targetPoint"/>
                    </mxGeometry>
                </mxCell>
                <mxCell id="sEaq5n1_qbvqVbGwh62S-28" value="alt" style="shape=umlFrame;whiteSpace=wrap;html=1;fontSize=11;" parent="1" vertex="1">
                    <mxGeometry x="60" y="310" width="810" height="200" as="geometry"/>
                </mxCell>
                <mxCell id="sEaq5n1_qbvqVbGwh62S-35" value="" style="endArrow=none;dashed=1;html=1;fontSize=11;exitX=0.002;exitY=0.52;exitDx=0;exitDy=0;exitPerimeter=0;entryX=1.005;entryY=0.525;entryDx=0;entryDy=0;entryPerimeter=0;" parent="1" source="sEaq5n1_qbvqVbGwh62S-28" target="sEaq5n1_qbvqVbGwh62S-28" edge="1">
                    <mxGeometry width="50" height="50" relative="1" as="geometry">
                        <mxPoint x="560" y="380" as="sourcePoint"/>
                        <mxPoint x="610" y="330" as="targetPoint"/>
                    </mxGeometry>
                </mxCell>
                <mxCell id="0p1FNDLbMPQ2LlB5c2je-15" value="&lt;font style=&quot;font-size: 24px;&quot;&gt;&lt;b&gt;Register :&lt;/b&gt;&lt;/font&gt;" style="text;strokeColor=none;fillColor=none;align=left;verticalAlign=middle;spacingLeft=4;spacingRight=4;overflow=hidden;points=[[0,0.5],[1,0.5]];portConstraint=eastwest;rotatable=0;whiteSpace=wrap;html=1;fontSize=14;" parent="1" vertex="1">
                    <mxGeometry x="10" y="611" width="210" height="30" as="geometry"/>
                </mxCell>
                <mxCell id="0p1FNDLbMPQ2LlB5c2je-16" value="" style="group" parent="1" vertex="1" connectable="0">
                    <mxGeometry x="63.75000000000006" y="100" width="776.25" height="395.635" as="geometry"/>
                </mxCell>
                <mxCell id="sEaq5n1_qbvqVbGwh62S-1" value="System" style="rounded=0;whiteSpace=wrap;html=1;fontSize=14;" parent="0p1FNDLbMPQ2LlB5c2je-16" vertex="1">
                    <mxGeometry x="436.24999999999994" width="110" height="60" as="geometry"/>
                </mxCell>
                <mxCell id="VsUeiiWR3tWET1cQSHcl-1" value="" style="endArrow=none;dashed=1;html=1;fontSize=14;startArrow=none;" parent="0p1FNDLbMPQ2LlB5c2je-16" source="sEaq5n1_qbvqVbGwh62S-10" edge="1">
                    <mxGeometry width="50" height="50" relative="1" as="geometry">
                        <mxPoint x="96.24999999999994" y="620" as="sourcePoint"/>
                        <mxPoint x="96.24999999999994" y="70" as="targetPoint"/>
                    </mxGeometry>
                </mxCell>
                <mxCell id="sEaq5n1_qbvqVbGwh62S-2" value="visiteur" style="shape=umlActor;verticalLabelPosition=bottom;verticalAlign=top;html=1;outlineConnect=0;fontSize=14;" parent="0p1FNDLbMPQ2LlB5c2je-16" vertex="1">
                    <mxGeometry x="79.99999999999994" width="30" height="60" as="geometry"/>
                </mxCell>
                <mxCell id="sEaq5n1_qbvqVbGwh62S-10" value="" style="rounded=0;whiteSpace=wrap;html=1;fontSize=24;rotation=-90;" parent="0p1FNDLbMPQ2LlB5c2je-16" vertex="1">
                    <mxGeometry x="49.069999999999936" y="127.19999999999999" width="91.88" height="32.5" as="geometry"/>
                </mxCell>
                <mxCell id="sEaq5n1_qbvqVbGwh62S-12" value="Database" style="rounded=0;whiteSpace=wrap;html=1;fontSize=14;" parent="0p1FNDLbMPQ2LlB5c2je-16" vertex="1">
                    <mxGeometry x="666.25" width="110" height="60" as="geometry"/>
                </mxCell>
                <mxCell id="sEaq5n1_qbvqVbGwh62S-13" value="" style="endArrow=none;dashed=1;html=1;fontSize=14;startArrow=none;" parent="0p1FNDLbMPQ2LlB5c2je-16" source="sEaq5n1_qbvqVbGwh62S-19" edge="1">
                    <mxGeometry width="50" height="50" relative="1" as="geometry">
                        <mxPoint x="726.25" y="660" as="sourcePoint"/>
                        <mxPoint x="726.3400000000001" y="60" as="targetPoint"/>
                    </mxGeometry>
                </mxCell>
                <mxCell id="sEaq5n1_qbvqVbGwh62S-14" value="Login page" style="rounded=0;whiteSpace=wrap;html=1;fontSize=14;" parent="0p1FNDLbMPQ2LlB5c2je-16" vertex="1">
                    <mxGeometry x="236.24999999999994" width="110" height="60" as="geometry"/>
                </mxCell>
                <mxCell id="sEaq5n1_qbvqVbGwh62S-15" value="" style="endArrow=none;dashed=1;html=1;fontSize=14;startArrow=none;" parent="0p1FNDLbMPQ2LlB5c2je-16" source="sEaq5n1_qbvqVbGwh62S-16" edge="1">
                    <mxGeometry width="50" height="50" relative="1" as="geometry">
                        <mxPoint x="296.24999999999994" y="660" as="sourcePoint"/>
                        <mxPoint x="296.3400000000001" y="60" as="targetPoint"/>
                    </mxGeometry>
                </mxCell>
                <mxCell id="sEaq5n1_qbvqVbGwh62S-16" value="" style="rounded=0;whiteSpace=wrap;html=1;fontSize=24;rotation=-90;" parent="0p1FNDLbMPQ2LlB5c2je-16" vertex="1">
                    <mxGeometry x="196.24999999999994" y="180" width="195" height="30" as="geometry"/>
                </mxCell>
                <mxCell id="sEaq5n1_qbvqVbGwh62S-18" value="" style="rounded=0;whiteSpace=wrap;html=1;fontSize=24;rotation=-90;" parent="0p1FNDLbMPQ2LlB5c2je-16" vertex="1">
                    <mxGeometry x="342.18999999999994" y="231.57" width="298.13" height="30" as="geometry"/>
                </mxCell>
                <mxCell id="sEaq5n1_qbvqVbGwh62S-19" value="" style="rounded=0;whiteSpace=wrap;html=1;fontSize=24;rotation=-90;" parent="0p1FNDLbMPQ2LlB5c2je-16" vertex="1">
                    <mxGeometry x="574.69" y="229.07" width="293.13" height="30" as="geometry"/>
                </mxCell>
                <mxCell id="sEaq5n1_qbvqVbGwh62S-21" value="" style="endArrow=classic;html=1;fontSize=24;" parent="0p1FNDLbMPQ2LlB5c2je-16" edge="1">
                    <mxGeometry relative="1" as="geometry">
                        <mxPoint x="116.24999999999994" y="131" as="sourcePoint"/>
                        <mxPoint x="276.24999999999994" y="131" as="targetPoint"/>
                    </mxGeometry>
                </mxCell>
                <mxCell id="sEaq5n1_qbvqVbGwh62S-22" value="&lt;font style=&quot;font-size: 11px;&quot;&gt;Fill the inputs&lt;/font&gt;" style="edgeLabel;resizable=0;html=1;align=center;verticalAlign=middle;fontSize=24;" parent="sEaq5n1_qbvqVbGwh62S-21" connectable="0" vertex="1">
                    <mxGeometry relative="1" as="geometry">
                        <mxPoint y="-15" as="offset"/>
                    </mxGeometry>
                </mxCell>
                <mxCell id="sEaq5n1_qbvqVbGwh62S-23" value="" style="endArrow=classic;html=1;fontSize=24;exitX=0.784;exitY=0.979;exitDx=0;exitDy=0;entryX=0.786;entryY=0.026;entryDx=0;entryDy=0;entryPerimeter=0;exitPerimeter=0;" parent="0p1FNDLbMPQ2LlB5c2je-16" edge="1">
                    <mxGeometry relative="1" as="geometry">
                        <mxPoint x="308.12000000000006" y="144.9799999999999" as="sourcePoint"/>
                        <mxPoint x="477.0299999999999" y="144.66999999999996" as="targetPoint"/>
                    </mxGeometry>
                </mxCell>
                <mxCell id="sEaq5n1_qbvqVbGwh62S-24" value="&lt;span style=&quot;font-size: 11px;&quot;&gt;validationForm()&lt;/span&gt;" style="edgeLabel;resizable=0;html=1;align=center;verticalAlign=middle;fontSize=24;" parent="sEaq5n1_qbvqVbGwh62S-23" connectable="0" vertex="1">
                    <mxGeometry relative="1" as="geometry">
                        <mxPoint y="-17" as="offset"/>
                    </mxGeometry>
                </mxCell>
                <mxCell id="sEaq5n1_qbvqVbGwh62S-25" value="" style="endArrow=classic;html=1;fontSize=24;exitX=0.784;exitY=0.979;exitDx=0;exitDy=0;entryX=0.789;entryY=-0.129;entryDx=0;entryDy=0;entryPerimeter=0;exitPerimeter=0;" parent="0p1FNDLbMPQ2LlB5c2je-16" edge="1">
                    <mxGeometry relative="1" as="geometry">
                        <mxPoint x="506.24999999999994" y="155.30999999999992" as="sourcePoint"/>
                        <mxPoint x="702.3800000000001" y="155.20499999999993" as="targetPoint"/>
                    </mxGeometry>
                </mxCell>
                <mxCell id="sEaq5n1_qbvqVbGwh62S-26" value="&lt;span style=&quot;font-size: 11px;&quot;&gt;check if the inputs exists&lt;/span&gt;" style="edgeLabel;resizable=0;html=1;align=center;verticalAlign=middle;fontSize=24;" parent="sEaq5n1_qbvqVbGwh62S-25" connectable="0" vertex="1">
                    <mxGeometry relative="1" as="geometry">
                        <mxPoint y="-16" as="offset"/>
                    </mxGeometry>
                </mxCell>
                <mxCell id="sEaq5n1_qbvqVbGwh62S-29" value="" style="endArrow=block;dashed=1;endFill=0;endSize=12;html=1;fontSize=11;entryX=0.63;entryY=0.15;entryDx=0;entryDy=0;entryPerimeter=0;" parent="0p1FNDLbMPQ2LlB5c2je-16" edge="1">
                    <mxGeometry width="160" relative="1" as="geometry">
                        <mxPoint x="706.25" y="252" as="sourcePoint"/>
                        <mxPoint x="506.5500000000001" y="252" as="targetPoint"/>
                    </mxGeometry>
                </mxCell>
                <mxCell id="sEaq5n1_qbvqVbGwh62S-31" value="email or pwd does not &#10;exist " style="text;align=center;fontStyle=1;verticalAlign=middle;spacingLeft=3;spacingRight=3;strokeColor=none;rotatable=0;points=[[0,0.5],[1,0.5]];portConstraint=eastwest;fontSize=11;" parent="0p1FNDLbMPQ2LlB5c2je-16" vertex="1">
                    <mxGeometry x="566.25" y="224" width="80" height="26" as="geometry"/>
                </mxCell>
                <mxCell id="sEaq5n1_qbvqVbGwh62S-32" value="" style="endArrow=block;dashed=1;endFill=0;endSize=12;html=1;fontSize=11;entryX=0.63;entryY=0.15;entryDx=0;entryDy=0;entryPerimeter=0;" parent="0p1FNDLbMPQ2LlB5c2je-16" edge="1">
                    <mxGeometry width="160" relative="1" as="geometry">
                        <mxPoint x="476.24999999999994" y="265.07" as="sourcePoint"/>
                        <mxPoint x="306.2500000000001" y="265.07" as="targetPoint"/>
                    </mxGeometry>
                </mxCell>
                <mxCell id="sEaq5n1_qbvqVbGwh62S-33" value="redirect to register page" style="text;align=center;fontStyle=1;verticalAlign=middle;spacingLeft=3;spacingRight=3;strokeColor=none;rotatable=0;points=[[0,0.5],[1,0.5]];portConstraint=eastwest;fontSize=11;" parent="0p1FNDLbMPQ2LlB5c2je-16" vertex="1">
                    <mxGeometry x="355.24999999999994" y="235" width="80" height="26" as="geometry"/>
                </mxCell>
                <mxCell id="sEaq5n1_qbvqVbGwh62S-36" value="" style="endArrow=block;dashed=1;endFill=0;endSize=12;html=1;fontSize=11;entryX=0.63;entryY=0.15;entryDx=0;entryDy=0;entryPerimeter=0;" parent="0p1FNDLbMPQ2LlB5c2je-16" edge="1">
                    <mxGeometry width="160" relative="1" as="geometry">
                        <mxPoint x="706.0999999999997" y="350" as="sourcePoint"/>
                        <mxPoint x="506.40000000000015" y="350" as="targetPoint"/>
                    </mxGeometry>
                </mxCell>
                <mxCell id="sEaq5n1_qbvqVbGwh62S-37" value="email and pwd exist and &#10;they are valid" style="text;align=center;fontStyle=1;verticalAlign=middle;spacingLeft=3;spacingRight=3;strokeColor=none;rotatable=0;points=[[0,0.5],[1,0.5]];portConstraint=eastwest;fontSize=11;" parent="0p1FNDLbMPQ2LlB5c2je-16" vertex="1">
                    <mxGeometry x="574.69" y="320" width="80" height="26" as="geometry"/>
                </mxCell>
                <mxCell id="0p1FNDLbMPQ2LlB5c2je-4" value="" style="endArrow=open;endFill=1;endSize=12;html=1;" parent="0p1FNDLbMPQ2LlB5c2je-16" edge="1">
                    <mxGeometry width="160" relative="1" as="geometry">
                        <mxPoint x="746.25" y="330" as="sourcePoint"/>
                        <mxPoint x="746.2499999999998" y="330" as="targetPoint"/>
                    </mxGeometry>
                </mxCell>
                <mxCell id="0p1FNDLbMPQ2LlB5c2je-6" value="" style="html=1;points=[];perimeter=orthogonalPerimeter;" parent="0p1FNDLbMPQ2LlB5c2je-16" vertex="1">
                    <mxGeometry x="716.25" y="329" width="25" height="50" as="geometry"/>
                </mxCell>
                <mxCell id="0p1FNDLbMPQ2LlB5c2je-7" value="validate the input of user" style="edgeStyle=orthogonalEdgeStyle;html=1;align=left;spacingLeft=2;endArrow=block;rounded=0;entryX=1;entryY=0;" parent="0p1FNDLbMPQ2LlB5c2je-16" target="0p1FNDLbMPQ2LlB5c2je-6" edge="1">
                    <mxGeometry relative="1" as="geometry">
                        <mxPoint x="736.25" y="310" as="sourcePoint"/>
                        <Array as="points">
                            <mxPoint x="766.25" y="310"/>
                        </Array>
                    </mxGeometry>
                </mxCell>
                <mxCell id="0p1FNDLbMPQ2LlB5c2je-8" value="" style="endArrow=block;dashed=1;endFill=0;endSize=12;html=1;fontSize=11;" parent="0p1FNDLbMPQ2LlB5c2je-16" edge="1">
                    <mxGeometry width="160" relative="1" as="geometry">
                        <mxPoint x="475.9499999999999" y="364" as="sourcePoint"/>
                        <mxPoint x="96.24999999999994" y="364" as="targetPoint"/>
                    </mxGeometry>
                </mxCell>
                <mxCell id="0p1FNDLbMPQ2LlB5c2je-9" value="redirect to home page" style="text;align=center;fontStyle=1;verticalAlign=middle;spacingLeft=3;spacingRight=3;strokeColor=none;rotatable=0;points=[[0,0.5],[1,0.5]];portConstraint=eastwest;fontSize=11;" parent="0p1FNDLbMPQ2LlB5c2je-16" vertex="1">
                    <mxGeometry x="204.75" y="341" width="80" height="26" as="geometry"/>
                </mxCell>
                <mxCell id="0p1FNDLbMPQ2LlB5c2je-10" value="validate inputs" style="text;align=center;fontStyle=1;verticalAlign=middle;spacingLeft=3;spacingRight=3;strokeColor=none;rotatable=0;points=[[0,0.5],[1,0.5]];portConstraint=eastwest;fontSize=11;" parent="0p1FNDLbMPQ2LlB5c2je-16" vertex="1">
                    <mxGeometry y="315" width="80" height="26" as="geometry"/>
                </mxCell>
                <mxCell id="0p1FNDLbMPQ2LlB5c2je-17" value="visiteur" style="shape=umlActor;verticalLabelPosition=bottom;verticalAlign=top;html=1;outlineConnect=0;fontSize=14;" parent="1" vertex="1">
                    <mxGeometry x="140" y="641" width="30" height="60" as="geometry"/>
                </mxCell>
                <mxCell id="0p1FNDLbMPQ2LlB5c2je-20" value="" style="endArrow=none;dashed=1;html=1;startArrow=none;" parent="1" source="q9XiomVNDTBvnuUQHW0j-13" edge="1">
                    <mxGeometry width="50" height="50" relative="1" as="geometry">
                        <mxPoint x="160" y="1282.7777862548828" as="sourcePoint"/>
                        <mxPoint x="160" y="730" as="targetPoint"/>
                    </mxGeometry>
                </mxCell>
                <mxCell id="0p1FNDLbMPQ2LlB5c2je-140" value="Register" style="rounded=0;whiteSpace=wrap;html=1;" parent="1" vertex="1">
                    <mxGeometry x="310" y="656" width="120" height="60" as="geometry"/>
                </mxCell>
                <mxCell id="0p1FNDLbMPQ2LlB5c2je-141" value="System" style="rounded=0;whiteSpace=wrap;html=1;" parent="1" vertex="1">
                    <mxGeometry x="516" y="656" width="120" height="60" as="geometry"/>
                </mxCell>
                <mxCell id="0p1FNDLbMPQ2LlB5c2je-142" value="Database" style="rounded=0;whiteSpace=wrap;html=1;" parent="1" vertex="1">
                    <mxGeometry x="730" y="656" width="120" height="60" as="geometry"/>
                </mxCell>
                <mxCell id="q9XiomVNDTBvnuUQHW0j-2" value="" style="endArrow=none;dashed=1;html=1;startArrow=none;" parent="1" source="q9XiomVNDTBvnuUQHW0j-15" edge="1">
                    <mxGeometry width="50" height="50" relative="1" as="geometry">
                        <mxPoint x="372.33000000000004" y="1268.7777862548828" as="sourcePoint"/>
                        <mxPoint x="372.33000000000004" y="716.0000000000002" as="targetPoint"/>
                    </mxGeometry>
                </mxCell>
                <mxCell id="q9XiomVNDTBvnuUQHW0j-3" value="" style="endArrow=none;dashed=1;html=1;startArrow=none;" parent="1" source="q9XiomVNDTBvnuUQHW0j-17" edge="1">
                    <mxGeometry width="50" height="50" relative="1" as="geometry">
                        <mxPoint x="574.3299999999999" y="1268.7777862548828" as="sourcePoint"/>
                        <mxPoint x="574.3299999999999" y="716.0000000000005" as="targetPoint"/>
                    </mxGeometry>
                </mxCell>
                <mxCell id="q9XiomVNDTBvnuUQHW0j-4" value="" style="endArrow=none;dashed=1;html=1;startArrow=none;" parent="1" source="q9XiomVNDTBvnuUQHW0j-19" edge="1">
                    <mxGeometry width="50" height="50" relative="1" as="geometry">
                        <mxPoint x="799.9999999999999" y="1268.7777862548828" as="sourcePoint"/>
                        <mxPoint x="799.9999999999999" y="716.0000000000005" as="targetPoint"/>
                    </mxGeometry>
                </mxCell>
                <mxCell id="q9XiomVNDTBvnuUQHW0j-14" value="" style="endArrow=none;dashed=1;html=1;" parent="1" target="q9XiomVNDTBvnuUQHW0j-13" edge="1">
                    <mxGeometry width="50" height="50" relative="1" as="geometry">
                        <mxPoint x="160" y="1180" as="sourcePoint"/>
                        <mxPoint x="160" y="730" as="targetPoint"/>
                    </mxGeometry>
                </mxCell>
                <mxCell id="q9XiomVNDTBvnuUQHW0j-13" value="" style="rounded=0;whiteSpace=wrap;html=1;" parent="1" vertex="1">
                    <mxGeometry x="140" y="760" width="30" height="140" as="geometry"/>
                </mxCell>
                <mxCell id="q9XiomVNDTBvnuUQHW0j-16" value="" style="endArrow=none;dashed=1;html=1;" parent="1" target="q9XiomVNDTBvnuUQHW0j-15" edge="1">
                    <mxGeometry width="50" height="50" relative="1" as="geometry">
                        <mxPoint x="372" y="1180" as="sourcePoint"/>
                        <mxPoint x="372.3299999999999" y="716.0000000000005" as="targetPoint"/>
                    </mxGeometry>
                </mxCell>
                <mxCell id="q9XiomVNDTBvnuUQHW0j-15" value="" style="rounded=0;whiteSpace=wrap;html=1;" parent="1" vertex="1">
                    <mxGeometry x="360" y="760" width="30" height="290" as="geometry"/>
                </mxCell>
                <mxCell id="q9XiomVNDTBvnuUQHW0j-18" value="" style="endArrow=none;dashed=1;html=1;" parent="1" target="q9XiomVNDTBvnuUQHW0j-17" edge="1">
                    <mxGeometry width="50" height="50" relative="1" as="geometry">
                        <mxPoint x="574" y="1180" as="sourcePoint"/>
                        <mxPoint x="574.3299999999999" y="716.0000000000005" as="targetPoint"/>
                    </mxGeometry>
                </mxCell>
                <mxCell id="q9XiomVNDTBvnuUQHW0j-17" value="" style="rounded=0;whiteSpace=wrap;html=1;" parent="1" vertex="1">
                    <mxGeometry x="561" y="770" width="30" height="230" as="geometry"/>
                </mxCell>
                <mxCell id="q9XiomVNDTBvnuUQHW0j-20" value="" style="endArrow=none;dashed=1;html=1;" parent="1" target="q9XiomVNDTBvnuUQHW0j-19" edge="1">
                    <mxGeometry width="50" height="50" relative="1" as="geometry">
                        <mxPoint x="800" y="1180" as="sourcePoint"/>
                        <mxPoint x="800" y="716.0000000000005" as="targetPoint"/>
                    </mxGeometry>
                </mxCell>
                <mxCell id="q9XiomVNDTBvnuUQHW0j-19" value="" style="rounded=0;whiteSpace=wrap;html=1;" parent="1" vertex="1">
                    <mxGeometry x="783" y="770" width="30" height="340" as="geometry"/>
                </mxCell>
                <mxCell id="q9XiomVNDTBvnuUQHW0j-21" value="" style="endArrow=classic;html=1;entryX=0;entryY=0.25;entryDx=0;entryDy=0;exitX=1;exitY=0.25;exitDx=0;exitDy=0;" parent="1" edge="1">
                    <mxGeometry relative="1" as="geometry">
                        <mxPoint x="170" y="812" as="sourcePoint"/>
                        <mxPoint x="360" y="812" as="targetPoint"/>
                    </mxGeometry>
                </mxCell>
                <mxCell id="q9XiomVNDTBvnuUQHW0j-22" value="Fill the form&amp;nbsp;" style="edgeLabel;resizable=0;html=1;align=center;verticalAlign=middle;" parent="q9XiomVNDTBvnuUQHW0j-21" connectable="0" vertex="1">
                    <mxGeometry relative="1" as="geometry">
                        <mxPoint y="-8" as="offset"/>
                    </mxGeometry>
                </mxCell>
                <mxCell id="q9XiomVNDTBvnuUQHW0j-23" value="" style="endArrow=classic;html=1;exitX=1;exitY=0.25;exitDx=0;exitDy=0;" parent="1" edge="1">
                    <mxGeometry relative="1" as="geometry">
                        <mxPoint x="390" y="828" as="sourcePoint"/>
                        <mxPoint x="560" y="828" as="targetPoint"/>
                    </mxGeometry>
                </mxCell>
                <mxCell id="q9XiomVNDTBvnuUQHW0j-24" value="validateForm()" style="edgeLabel;resizable=0;html=1;align=center;verticalAlign=middle;" parent="q9XiomVNDTBvnuUQHW0j-23" connectable="0" vertex="1">
                    <mxGeometry relative="1" as="geometry">
                        <mxPoint y="-8" as="offset"/>
                    </mxGeometry>
                </mxCell>
                <mxCell id="q9XiomVNDTBvnuUQHW0j-25" value="" style="endArrow=classic;html=1;exitX=1;exitY=0.25;exitDx=0;exitDy=0;" parent="1" edge="1">
                    <mxGeometry relative="1" as="geometry">
                        <mxPoint x="591" y="838" as="sourcePoint"/>
                        <mxPoint x="780" y="838" as="targetPoint"/>
                    </mxGeometry>
                </mxCell>
                <mxCell id="q9XiomVNDTBvnuUQHW0j-26" value="check if the email exists&amp;nbsp;" style="edgeLabel;resizable=0;html=1;align=center;verticalAlign=middle;" parent="q9XiomVNDTBvnuUQHW0j-25" connectable="0" vertex="1">
                    <mxGeometry relative="1" as="geometry">
                        <mxPoint y="-8" as="offset"/>
                    </mxGeometry>
                </mxCell>
                <mxCell id="q9XiomVNDTBvnuUQHW0j-27" value="alt" style="shape=umlFrame;whiteSpace=wrap;html=1;" parent="1" vertex="1">
                    <mxGeometry x="120" y="910" width="780" height="230" as="geometry"/>
                </mxCell>
                <mxCell id="q9XiomVNDTBvnuUQHW0j-29" value="" style="endArrow=none;dashed=1;html=1;entryX=1;entryY=0.652;entryDx=0;entryDy=0;entryPerimeter=0;exitX=0;exitY=0.663;exitDx=0;exitDy=0;exitPerimeter=0;" parent="1" edge="1">
                    <mxGeometry width="50" height="50" relative="1" as="geometry">
                        <mxPoint x="122.00000000000011" y="1006.49" as="sourcePoint"/>
                        <mxPoint x="902" y="1003.96" as="targetPoint"/>
                    </mxGeometry>
                </mxCell>
                <mxCell id="q9XiomVNDTBvnuUQHW0j-31" value="Email already exists&amp;nbsp;" style="html=1;verticalAlign=bottom;endArrow=open;dashed=1;endSize=8;entryX=0.603;entryY=0.217;entryDx=0;entryDy=0;entryPerimeter=0;" parent="1" target="q9XiomVNDTBvnuUQHW0j-27" edge="1">
                    <mxGeometry relative="1" as="geometry">
                        <mxPoint x="780" y="960" as="sourcePoint"/>
                        <mxPoint x="700" y="960" as="targetPoint"/>
                    </mxGeometry>
                </mxCell>
                <mxCell id="q9XiomVNDTBvnuUQHW0j-32" value="This email is already exists" style="html=1;verticalAlign=bottom;endArrow=open;dashed=1;endSize=8;entryX=0.603;entryY=0.217;entryDx=0;entryDy=0;entryPerimeter=0;" parent="1" edge="1">
                    <mxGeometry relative="1" as="geometry">
                        <mxPoint x="560" y="968" as="sourcePoint"/>
                        <mxPoint x="390.0000000000001" y="968.0000000000001" as="targetPoint"/>
                    </mxGeometry>
                </mxCell>
                <mxCell id="q9XiomVNDTBvnuUQHW0j-34" value="" style="endArrow=classic;html=1;exitX=0.346;exitY=0.496;exitDx=0;exitDy=0;exitPerimeter=0;" parent="1" edge="1">
                    <mxGeometry relative="1" as="geometry">
                        <mxPoint x="389.8799999999999" y="1043.08" as="sourcePoint"/>
                        <mxPoint x="783" y="1043" as="targetPoint"/>
                    </mxGeometry>
                </mxCell>
                <mxCell id="q9XiomVNDTBvnuUQHW0j-35" value="addNewUser()" style="edgeLabel;resizable=0;html=1;align=center;verticalAlign=middle;" parent="q9XiomVNDTBvnuUQHW0j-34" connectable="0" vertex="1">
                    <mxGeometry relative="1" as="geometry">
                        <mxPoint y="-8" as="offset"/>
                    </mxGeometry>
                </mxCell>
                <mxCell id="q9XiomVNDTBvnuUQHW0j-36" value="&lt;b&gt;validate data&lt;/b&gt;" style="text;html=1;strokeColor=none;fillColor=none;align=center;verticalAlign=middle;whiteSpace=wrap;rounded=0;" parent="1" vertex="1">
                    <mxGeometry x="109" y="1005" width="111" height="30" as="geometry"/>
                </mxCell>
                <mxCell id="q9XiomVNDTBvnuUQHW0j-37" value="&lt;font style=&quot;font-size: 24px;&quot;&gt;&lt;b&gt;Visiteur :&lt;/b&gt;&lt;/font&gt;" style="text;strokeColor=none;fillColor=none;align=left;verticalAlign=middle;spacingLeft=4;spacingRight=4;overflow=hidden;points=[[0,0.5],[1,0.5]];portConstraint=eastwest;rotatable=0;whiteSpace=wrap;html=1;fontSize=14;" parent="1" vertex="1">
                    <mxGeometry x="20" y="1206" width="210" height="30" as="geometry"/>
                </mxCell>
            </root>
        </mxGraphModel>
    </diagram>
</mxfile>